<svg xmlns="http://www.w3.org/2000/svg" width="860" height="560" viewBox="0 0 860 560" fill="none">
  <title>PublicMachina constellation mark</title>
  <desc>Eight tender claw-like pixel agents in connected formation, each with a different emotion and helmet color.</desc>

  <defs>
    <g id="agent-body" shape-rendering="crispEdges">
      <rect x="-12" y="-58" width="24" height="24" fill="#131722"/>
      <rect x="-8" y="-54" width="16" height="16" fill="currentColor"/>
      <rect x="0" y="-54" width="4" height="4" fill="#FFF0B8"/>
      <rect x="-4" y="-34" width="3" height="26" fill="#131722"/>
      <rect x="1" y="-34" width="3" height="26" fill="#131722"/>
      <rect x="-18" y="-10" width="36" height="7" fill="#131722"/>
      <rect x="-26" y="-4" width="10" height="7" fill="#131722"/>
      <rect x="16" y="-4" width="10" height="7" fill="#131722"/>

      <rect x="-42" y="4" width="16" height="36" fill="#131722"/>
      <rect x="-38" y="8" width="12" height="28" fill="currentColor"/>
      <rect x="-34" y="12" width="8" height="8" fill="#FFD4A6"/>
      <rect x="-26" y="40" width="6" height="14" fill="#131722"/>
      <rect x="-22" y="48" width="10" height="12" fill="currentColor"/>

      <rect x="26" y="4" width="16" height="36" fill="#131722"/>
      <rect x="26" y="8" width="12" height="28" fill="currentColor"/>
      <rect x="30" y="12" width="8" height="8" fill="#FFD4A6"/>
      <rect x="20" y="40" width="6" height="14" fill="#131722"/>
      <rect x="12" y="48" width="10" height="12" fill="currentColor"/>

      <rect x="-30" y="0" width="60" height="72" fill="#131722"/>
      <rect x="-20" y="8" width="40" height="36" fill="#FFF8D9"/>
      <rect x="-20" y="4" width="40" height="8" fill="#EDE5C3"/>
      <rect x="-16" y="44" width="32" height="28" fill="#FFF8D9"/>
      <rect x="-18" y="44" width="36" height="4" fill="#131722"/>
      <rect x="-16" y="56" width="32" height="4" fill="#E9D9B3"/>
      <rect x="-16" y="64" width="32" height="4" fill="#E9D9B3"/>

      <rect x="-12" y="28" width="4" height="4" fill="#F6B7B2"/>
      <rect x="8" y="28" width="4" height="4" fill="#F6B7B2"/>

      <rect x="-34" y="62" width="14" height="8" fill="#131722"/>
      <rect x="20" y="62" width="14" height="8" fill="#131722"/>
      <rect x="-30" y="62" width="10" height="8" fill="currentColor"/>
      <rect x="20" y="62" width="10" height="8" fill="currentColor"/>
    </g>

    <g id="face-happy" shape-rendering="crispEdges">
      <rect x="-10" y="18" width="6" height="6" fill="#131722"/>
      <rect x="4" y="18" width="6" height="6" fill="#131722"/>
      <rect x="-4" y="30" width="2" height="2" fill="#131722"/>
      <rect x="2" y="30" width="2" height="2" fill="#131722"/>
      <rect x="-2" y="32" width="4" height="2" fill="#131722"/>
    </g>

    <g id="face-round" shape-rendering="crispEdges">
      <rect x="-10" y="18" width="6" height="6" fill="#131722"/>
      <rect x="4" y="18" width="6" height="6" fill="#131722"/>
      <rect x="-2" y="30" width="4" height="4" fill="#131722"/>
    </g>

    <g id="face-squint" shape-rendering="crispEdges">
      <rect x="-12" y="18" width="2" height="2" fill="#131722"/>
      <rect x="-10" y="20" width="2" height="2" fill="#131722"/>
      <rect x="-8" y="22" width="2" height="2" fill="#131722"/>
      <rect x="8" y="18" width="2" height="2" fill="#131722"/>
      <rect x="6" y="20" width="2" height="2" fill="#131722"/>
      <rect x="4" y="22" width="2" height="2" fill="#131722"/>
      <rect x="-4" y="31" width="8" height="2" fill="#131722"/>
    </g>

    <g id="face-star" shape-rendering="crispEdges">
      <rect x="-11" y="18" width="7" height="7" fill="#131722"/>
      <rect x="4" y="18" width="7" height="7" fill="#131722"/>
      <rect x="-2" y="30" width="4" height="2" fill="#131722"/>
      <rect x="-4" y="32" width="8" height="2" fill="#131722"/>
    </g>

    <g id="face-flat" shape-rendering="crispEdges">
      <rect x="-10" y="20" width="6" height="3" fill="#131722"/>
      <rect x="4" y="20" width="6" height="3" fill="#131722"/>
      <rect x="-4" y="31" width="8" height="2" fill="#131722"/>
    </g>

    <g id="face-sleep" shape-rendering="crispEdges">
      <rect x="-10" y="20" width="6" height="2" fill="#131722"/>
      <rect x="4" y="20" width="6" height="2" fill="#131722"/>
      <rect x="-3" y="30" width="2" height="2" fill="#131722"/>
      <rect x="1" y="30" width="2" height="2" fill="#131722"/>
      <rect x="-5" y="32" width="10" height="2" fill="#131722"/>
    </g>

    <g id="face-open" shape-rendering="crispEdges">
      <rect x="-10" y="18" width="6" height="6" fill="#131722"/>
      <rect x="4" y="18" width="6" height="6" fill="#131722"/>
      <rect x="-2" y="29" width="4" height="6" fill="#131722"/>
    </g>

    <g id="face-wave" shape-rendering="crispEdges">
      <rect x="-10" y="20" width="6" height="3" fill="#131722"/>
      <rect x="4" y="20" width="6" height="3" fill="#131722"/>
      <rect x="-6" y="32" width="4" height="2" fill="#131722"/>
      <rect x="-2" y="30" width="4" height="2" fill="#131722"/>
      <rect x="2" y="32" width="4" height="2" fill="#131722"/>
    </g>
  </defs>

  <g stroke="#596A90" stroke-width="8" stroke-linecap="square" opacity="0.65" shape-rendering="crispEdges">
    <path d="M235 82H435"/>
    <path d="M145 215H335H525"/>
    <path d="M255 355H435"/>
    <path d="M433 355L515 455"/>
    <path d="M235 82L145 215"/>
    <path d="M235 82L335 215"/>
    <path d="M435 82L335 215"/>
    <path d="M435 82L525 215"/>
    <path d="M145 215L255 355"/>
    <path d="M335 215L255 355"/>
    <path d="M335 215L435 355"/>
    <path d="M525 215L435 355"/>
  </g>

  <g shape-rendering="crispEdges">
    <g transform="translate(235 82)" style="color:#F6C445">
      <use href="#agent-body"/>
      <use href="#face-happy"/>
    </g>

    <g transform="translate(435 82)" style="color:#FF9D2A">
      <use href="#agent-body"/>
      <use href="#face-round"/>
    </g>

    <g transform="translate(145 215)" style="color:#FF6C3F">
      <use href="#agent-body"/>
      <use href="#face-squint"/>
    </g>

    <g transform="translate(335 215)" style="color:#8E7BFF">
      <use href="#agent-body"/>
      <use href="#face-star"/>
    </g>

    <g transform="translate(525 215)" style="color:#E95AA7">
      <use href="#agent-body"/>
      <use href="#face-flat"/>
    </g>

    <g transform="translate(255 355)" style="color:#53B6FF">
      <use href="#agent-body"/>
      <use href="#face-sleep"/>
    </g>

    <g transform="translate(435 355)" style="color:#75D456">
      <use href="#agent-body"/>
      <use href="#face-open"/>
    </g>

    <g transform="translate(515 455)" style="color:#F0A3FF">
      <use href="#agent-body"/>
      <use href="#face-wave"/>
    </g>
  </g>
</svg>
